STARTFONT 2.1
FONT jis.jis5c00.16
SIZE 16 72 72
FONTBOUNDINGBOX 16 16 0 -2
STARTPROPERTIES 4
FONT_DESCENT 2
FONT_ASCENT 14
DEFAULT_CHAR 1
COPYRIGHT "Copyright (c) 1992 AT&T - All rights reserved."
ENDPROPERTIES
CHARS 154
STARTCHAR ch-1
ENCODING 1
SWIDTH 1000 0
DWIDTH 16 0
BBX 16 16 0 -2
BITMAP
0804
0804
7f04
0804
087f
ff84
0004
0844
0864
7f24
0804
0804
0804
0f04
3804
e01c
ENDCHAR
STARTCHAR ch-2
ENCODING 2
SWIDTH 1000 0
DWIDTH 16 0
BBX 16 16 0 -2
BITMAP
0100
0100
ffff
0100
3ffc
2104
3ffc
2104
2104
3ffc
0010
ffff
0810
0c10
0410
0070
ENDCHAR
STARTCHAR ch-4
ENCODING 4
SWIDTH 1000 0
DWIDTH 16 0
BBX 16 16 0 -2
BITMAP
0404
0804
3f04
2104
217f
3f04
2104
2124
3f34
2114
2104
ff04
0504
1904
e104
071c
ENDCHAR
STARTCHAR ch-5
ENCODING 5
SWIDTH 1000 0
DWIDTH 16 0
BBX 16 16 0 -2
BITMAP
0804
0804
ff84
0804
087f
7f04
4104
4124
7f34
2414
2404
2404
2404
641d
4603
c3fe
ENDCHAR
STARTCHAR ch-6
ENCODING 6
SWIDTH 1000 0
DWIDTH 16 0
BBX 16 16 0 -2
BITMAP
1006
103c
13e1
9043
d266
5324
1100
1004
17ff
3004
7184
d0c4
1044
1004
1004
101c
ENDCHAR
STARTCHAR ch-7
ENCODING 7
SWIDTH 1000 0
DWIDTH 16 0
BBX 16 16 0 -2
BITMAP
0820
487e
48c6
49ac
4b58
7830
08e0
0b88
f808
4bff
4808
4888
48c8
4848
8808
0838
ENDCHAR
STARTCHAR ch-8
ENCODING 8
SWIDTH 1000 0
DWIDTH 16 0
BBX 16 16 0 -2
BITMAP
0100
0100
7ffe
0100
1ff8
1108
1ff8
1108
1ff8
0110
07f8
7c0c
0010
ffff
0810
0470
ENDCHAR
STARTCHAR ch-9
ENCODING 9
SWIDTH 1000 0
DWIDTH 16 0
BBX 16 16 0 -2
BITMAP
0004
7f04
4104
4104
7f04
407f
4004
5f04
4024
5f34
4414
5504
d504
9504
a504
0c1c
ENDCHAR
STARTCHAR ch-10
ENCODING 10
SWIDTH 1000 0
DWIDTH 16 0
BBX 16 16 0 -2
BITMAP
1008
0810
ffff
0240
3ffc
2244
3c7c
2004
3ffc
2004
3ffc
0010
ffff
1010
0810
0070
ENDCHAR
STARTCHAR ch-11
ENCODING 11
SWIDTH 1000 0
DWIDTH 16 0
BBX 16 16 0 -2
BITMAP
1ff8
0008
1ff8
0008
1ff8
0000
7f7e
0842
0f42
787e
0010
ffff
0810
0c10
0410
0070
ENDCHAR
STARTCHAR ch-13
ENCODING 13
SWIDTH 1000 0
DWIDTH 16 0
BBX 16 16 0 -2
BITMAP
9484
5504
1404
ff84
007f
4204
2404
7f24
0834
0814
7f04
0804
0804
0f04
3804
e01c
ENDCHAR
STARTCHAR ch-14
ENCODING 14
SWIDTH 1000 0
DWIDTH 16 0
BBX 16 16 0 -2
BITMAP
0110
6fff
3040
13fc
0204
f3fc
1204
13fc
1204
33fc
6800
c7ff
0008
ffff
0808
0438
ENDCHAR
STARTCHAR ch-15
ENCODING 15
SWIDTH 1000 0
DWIDTH 16 0
BBX 16 16 0 -2
BITMAP
0100
0100
0100
0100
1108
1108
1108
310c
2104
6106
4102
c103
0100
0100
0100
0700
ENDCHAR
STARTCHAR ch-17
ENCODING 17
SWIDTH 1000 0
DWIDTH 16 0
BBX 16 16 0 -2
BITMAP
0100
0100
0100
1110
1118
310c
2106
6103
c108
0118
0730
0060
00c0
0380
0e00
7800
ENDCHAR
STARTCHAR ch-19
ENCODING 19
SWIDTH 1000 0
DWIDTH 16 0
BBX 16 16 0 -2
BITMAP
1000
1000
1000
3fff
2100
6100
c100
0910
0910
1918
1108
310c
6106
c103
0100
0700
ENDCHAR
STARTCHAR ch-22
ENCODING 22
SWIDTH 1000 0
DWIDTH 16 0
BBX 16 16 0 -2
BITMAP
0100
0100
0920
1930
311c
e107
0100
0700
0000
0100
ffff
0280
06c0
0c70
381c
e007
ENDCHAR
STARTCHAR ch-26
ENCODING 26
SWIDTH 1000 0
DWIDTH 16 0
BBX 16 16 0 -2
BITMAP
0100
2104
310c
1918
0910
7ffe
4002
4002
4ff2
4812
4812
4812
4ff2
4002
4002
400e
ENDCHAR
STARTCHAR ch-32
ENCODING 32
SWIDTH 1000 0
DWIDTH 16 0
BBX 16 16 0 -2
BITMAP
2210
2210
ff90
2254
3e54
2256
3e93
2210
ff92
5432
5406
5704
600c
4018
7f30
00e0
ENDCHAR
STARTCHAR ch-34
ENCODING 34
SWIDTH 1000 0
DWIDTH 16 0
BBX 16 16 0 -2
BITMAP
0100
0100
0100
0100
ffff
0100
0100
0380
0280
0280
0680
0480
0c80
1881
30c3
e07e
ENDCHAR
STARTCHAR ch-36
ENCODING 36
SWIDTH 1000 0
DWIDTH 16 0
BBX 16 16 0 -2
BITMAP
0130
0118
0108
0100
ffff
0100
0100
0380
0280
0280
0680
0480
0c80
1881
30c3
e07e
ENDCHAR
STARTCHAR ch-40
ENCODING 40
SWIDTH 1000 0
DWIDTH 16 0
BBX 16 16 0 -2
BITMAP
1204
130c
1108
1018
fe32
10e6
100c
1018
1031
38e3
2806
280c
2838
68e1
4c03
c7fe
ENDCHAR
STARTCHAR ch-45
ENCODING 45
SWIDTH 1000 0
DWIDTH 16 0
BBX 16 16 0 -2
BITMAP
0100
0100
7ffe
0100
1108
1008
ffff
1008
1008
0000
7ffe
0420
0420
0c21
1833
f01e
ENDCHAR
STARTCHAR ch-49
ENCODING 49
SWIDTH 1000 0
DWIDTH 16 0
BBX 16 16 0 -2
BITMAP
0814
0816
0812
ff90
007f
7f10
4110
4110
7f10
0838
2a28
2b28
6968
c849
08c9
3987
ENDCHAR
STARTCHAR ch-56
ENCODING 56
SWIDTH 1000 0
DWIDTH 16 0
BBX 16 16 0 -2
BITMAP
0000
1ffe
1002
1002
1002
1002
1ffe
1000
1000
1000
1000
1000
3000
2000
6000
c000
ENDCHAR
STARTCHAR ch-57
ENCODING 57
SWIDTH 1000 0
DWIDTH 16 0
BBX 16 16 0 -2
BITMAP
0000
3ffc
0104
0104
0104
ffff
0104
0104
0104
3ffc
0100
0100
0300
0600
1c00
7000
ENDCHAR
STARTCHAR ch-58
ENCODING 58
SWIDTH 1000 0
DWIDTH 16 0
BBX 16 16 0 -2
BITMAP
0000
1ffc
1004
1004
1004
1004
1ffc
1080
10c0
1040
1060
1020
3030
2018
600c
c007
ENDCHAR
STARTCHAR ch-59
ENCODING 59
SWIDTH 1000 0
DWIDTH 16 0
BBX 16 16 0 -2
BITMAP
0000
3ffe
2002
2002
3ffe
2000
2100
2100
2ff8
2108
2108
2108
6308
4209
c609
1c07
ENDCHAR
STARTCHAR ch-60
ENCODING 60
SWIDTH 1000 0
DWIDTH 16 0
BBX 16 16 0 -2
BITMAP
0000
3ffe
2002
2002
2002
3ffe
2000
2200
2206
223c
23e0
2200
6200
4201
c303
01fe
ENDCHAR
STARTCHAR ch-61
ENCODING 61
SWIDTH 1000 0
DWIDTH 16 0
BBX 16 16 0 -2
BITMAP
0000
1ffc
1004
1004
1004
1ffc
1010
1010
1318
31c8
204c
6006
c603
0380
00c0
0060
ENDCHAR
STARTCHAR ch-62
ENCODING 62
SWIDTH 1000 0
DWIDTH 16 0
BBX 16 16 0 -2
BITMAP
0000
3ffe
2002
2002
3ffe
2000
2038
27e0
2080
2ffc
2080
3ffe
6080
4081
c0c3
007e
ENDCHAR
STARTCHAR ch-63
ENCODING 63
SWIDTH 1000 0
DWIDTH 16 0
BBX 16 16 0 -2
BITMAP
0000
3ffe
2002
2002
3ffe
2000
2040
2042
2f46
216c
2378
2250
6658
4c4c
d847
01c0
ENDCHAR
STARTCHAR ch-64
ENCODING 64
SWIDTH 1000 0
DWIDTH 16 0
BBX 16 16 0 -2
BITMAP
0000
3ffc
2004
2004
3ffc
2000
2000
3ffe
2002
27f2
2412
6412
47f2
c006
0004
001c
ENDCHAR
STARTCHAR ch-65
ENCODING 65
SWIDTH 1000 0
DWIDTH 16 0
BBX 16 16 0 -2
BITMAP
0000
3ffe
2002
2002
3ffe
2000
2420
2420
2426
27bc
2420
2420
6420
4421
c7b3
1c1e
ENDCHAR
STARTCHAR ch-69
ENCODING 69
SWIDTH 1000 0
DWIDTH 16 0
BBX 16 16 0 -2
BITMAP
0000
3ffe
2002
2002
3ffe
2040
2040
3fff
2040
2040
2ffe
2802
6802
4802
c802
0ffe
ENDCHAR
STARTCHAR ch-70
ENCODING 70
SWIDTH 1000 0
DWIDTH 16 0
BBX 16 16 0 -2
BITMAP
0000
3ffe
2002
2002
3ffe
2000
2040
2842
2bfa
2842
2842
2842
6bfa
4802
c802
0ffe
ENDCHAR
STARTCHAR ch-72
ENCODING 72
SWIDTH 1000 0
DWIDTH 16 0
BBX 16 16 0 -2
BITMAP
0000
3ffe
2002
2002
3ffe
2000
2040
2444
2444
2444
27fc
2040
6842
4842
c842
0ffe
ENDCHAR
STARTCHAR ch-74
ENCODING 74
SWIDTH 1000 0
DWIDTH 16 0
BBX 16 16 0 -2
BITMAP
0000
3ffe
2002
2002
3ffe
2040
2040
2ffe
2842
2842
2842
2ffe
6842
4842
c842
0ffe
ENDCHAR
STARTCHAR ch-75
ENCODING 75
SWIDTH 1000 0
DWIDTH 16 0
BBX 16 16 0 -2
BITMAP
0000
3ffe
2002
2002
3ffe
2000
2ffe
2200
2204
247e
2fc2
2040
67fc
4040
c040
1fff
ENDCHAR
STARTCHAR ch-77
ENCODING 77
SWIDTH 1000 0
DWIDTH 16 0
BBX 16 16 0 -2
BITMAP
0000
3ffe
2002
2002
3ffe
2000
2000
3fff
2400
27a0
2ca6
39bc
6520
4321
c623
1c1e
ENDCHAR
STARTCHAR ch-78
ENCODING 78
SWIDTH 1000 0
DWIDTH 16 0
BBX 16 16 0 -2
BITMAP
0000
3ffe
2002
2002
3ffe
2000
2444
264c
2248
2ffe
2150
2358
6248
464c
dc47
0040
ENDCHAR
STARTCHAR ch-79
ENCODING 79
SWIDTH 1000 0
DWIDTH 16 0
BBX 16 16 0 -2
BITMAP
0000
3ffe
2002
2002
3ffe
2208
2110
2ffe
2110
2110
3fff
2110
6310
4210
c610
0c10
ENDCHAR
STARTCHAR ch-80
ENCODING 80
SWIDTH 1000 0
DWIDTH 16 0
BBX 16 16 0 -2
BITMAP
0000
3ffe
2002
2002
3ffe
2210
2610
2dff
3810
22fc
2644
3c6c
6428
4438
c46c
05c7
ENDCHAR
STARTCHAR ch-81
ENCODING 81
SWIDTH 1000 0
DWIDTH 16 0
BBX 16 16 0 -2
BITMAP
0000
3ffe
2002
2002
3ffe
2000
2444
2248
27fe
2402
27fe
2402
67fe
4402
c402
040e
ENDCHAR
STARTCHAR ch-83
ENCODING 83
SWIDTH 1000 0
DWIDTH 16 0
BBX 16 16 0 -2
BITMAP
0000
3ffe
2002
2002
3ffe
2000
2ffe
2802
2ffe
2802
2ffe
2802
6ffe
4208
c60c
1c07
ENDCHAR
STARTCHAR ch-85
ENCODING 85
SWIDTH 1000 0
DWIDTH 16 0
BBX 16 16 0 -2
BITMAP
0000
3ffe
2002
2002
3ffe
2210
2210
2ffe
2210
2210
3fff
2444
6468
4430
c79c
1c07
ENDCHAR
STARTCHAR ch-94
ENCODING 94
SWIDTH 1000 0
DWIDTH 16 0
BBX 16 16 0 -2
BITMAP
0000
3ffe
2002
3ffe
2000
27fc
2040
27fc
2444
27fc
2040
2ffe
6852
487a
cbca
0806
ENDCHAR
STARTCHAR ch-96
ENCODING 96
SWIDTH 1000 0
DWIDTH 16 0
BBX 16 16 0 -2
BITMAP
0000
3ffe
2002
2002
3ffe
2084
2ffc
2090
3fff
2040
23fc
3e04
63fc
4204
c204
03fc
ENDCHAR
STARTCHAR ch-97
ENCODING 97
SWIDTH 1000 0
DWIDTH 16 0
BBX 16 16 0 -2
BITMAP
0000
3ffe
2002
2002
3ffe
2888
2490
3fff
2290
2c8e
2100
7fff
4210
c7e0
0098
1f06
ENDCHAR
STARTCHAR ch-100
ENCODING 100
SWIDTH 1000 0
DWIDTH 16 0
BBX 16 16 0 -2
BITMAP
0000
3ffe
2002
3ffe
2208
2ffe
2842
2ffe
2842
2ffe
2000
27fc
6404
47fc
c404
07fc
ENDCHAR
STARTCHAR ch-101
ENCODING 101
SWIDTH 1000 0
DWIDTH 16 0
BBX 16 16 0 -2
BITMAP
7ffe
4002
7ffe
4480
4cfe
4900
50fc
4484
4cfc
4884
58fc
4840
c8fe
8b44
8838
0bc7
ENDCHAR
STARTCHAR ch-108
ENCODING 108
SWIDTH 1000 0
DWIDTH 16 0
BBX 16 16 0 -2
BITMAP
3ffe
2002
3ffe
2040
2f5e
2040
2ffe
2912
2fff
2481
2ff9
3889
6ff9
4093
c3fa
1e0e
ENDCHAR
STARTCHAR ch-110
ENCODING 110
SWIDTH 1000 0
DWIDTH 16 0
BBX 16 16 0 -2
BITMAP
0100
0100
0100
4102
4102
4102
4102
4102
4102
4102
7ffe
0100
0300
0600
0c00
7800
ENDCHAR
STARTCHAR ch-111
ENCODING 111
SWIDTH 1000 0
DWIDTH 16 0
BBX 16 16 0 -2
BITMAP
0100
010e
01f8
ff00
0100
0100
2108
2108
2108
2108
2108
3ff8
0100
0101
0183
00fe
ENDCHAR
STARTCHAR ch-113
ENCODING 113
SWIDTH 1000 0
DWIDTH 16 0
BBX 16 16 0 -2
BITMAP
0100
0100
0100
0100
0100
4102
4102
4102
4102
4102
4102
4102
4102
4102
7ffe
0000
ENDCHAR
STARTCHAR ch-118
ENCODING 118
SWIDTH 1000 0
DWIDTH 16 0
BBX 16 16 0 -2
BITMAP
0100
4102
4102
4102
7ffe
0000
0000
fffe
0202
0202
0602
0402
0c02
1806
3004
e01c
ENDCHAR
STARTCHAR ch-121
ENCODING 121
SWIDTH 1000 0
DWIDTH 16 0
BBX 16 16 0 -2
BITMAP
2080
2080
2080
a9ff
ab00
ae00
a9fe
a80c
a818
a830
a860
f8c0
0180
0101
0183
00fe
ENDCHAR
STARTCHAR ch-140
ENCODING 140
SWIDTH 1000 0
DWIDTH 16 0
BBX 16 16 0 -2
BITMAP
0100
4102
4102
7ffe
0000
7fe0
0420
0420
0e7c
0a0c
1b18
31b0
60e0
c1b0
071c
3c07
ENDCHAR
STARTCHAR ch-144
ENCODING 144
SWIDTH 1000 0
DWIDTH 16 0
BBX 16 16 0 -2
BITMAP
0020
2020
27ff
a820
a820
abfc
a904
a98c
a888
a8d8
a870
f820
0070
00d8
018c
0707
ENDCHAR
STARTCHAR ch-145
ENCODING 145
SWIDTH 1000 0
DWIDTH 16 0
BBX 16 16 0 -2
BITMAP
0100
4102
4102
7ffe
0100
0380
06c0
0c70
3b9c
e007
1ff0
0010
0030
0020
0060
0040
ENDCHAR
STARTCHAR ch-148
ENCODING 148
SWIDTH 1000 0
DWIDTH 16 0
BBX 16 16 0 -2
BITMAP
0420
0c30
1818
300c
ffff
0208
0608
0c18
1810
7070
0100
4102
4102
4102
7ffe
0000
ENDCHAR
STARTCHAR ch-161
ENCODING 161
SWIDTH 1000 0
DWIDTH 16 0
BBX 16 16 0 -2
BITMAP
0000
7ffe
4812
4422
4422
5ffa
4102
4102
4912
4912
4912
4912
4ff2
4002
4002
400e
ENDCHAR
STARTCHAR ch-168
ENCODING 168
SWIDTH 1000 0
DWIDTH 16 0
BBX 16 16 0 -2
BITMAP
0000
21fc
2104
a904
a904
a9fc
a904
a904
a904
a9fc
a904
f904
0104
0104
07ff
0000
ENDCHAR
STARTCHAR ch-169
ENCODING 169
SWIDTH 1000 0
DWIDTH 16 0
BBX 16 16 0 -2
BITMAP
0100
2104
2104
2104
3ffc
0000
0000
ffff
0400
0800
1ffc
2804
c804
0804
0804
0ffc
ENDCHAR
STARTCHAR ch-171
ENCODING 171
SWIDTH 1000 0
DWIDTH 16 0
BBX 16 16 0 -2
BITMAP
0020
2020
2020
2020
abfe
aa22
aa22
aa22
aa22
abfe
aa22
aa22
fa22
0222
0222
03fe
ENDCHAR
STARTCHAR ch-172
ENCODING 172
SWIDTH 1000 0
DWIDTH 16 0
BBX 16 16 0 -2
BITMAP
2000
23fe
2222
aa22
aa22
abfe
aa22
aa22
aa22
aa22
abfe
f820
0020
0020
0020
0020
ENDCHAR
STARTCHAR ch-177
ENCODING 177
SWIDTH 1000 0
DWIDTH 16 0
BBX 16 16 0 -2
BITMAP
0848
184c
3044
67ff
a020
2030
2018
200d
2007
2002
0100
4102
4102
4102
7ffe
0000
ENDCHAR
STARTCHAR ch-179
ENCODING 179
SWIDTH 1000 0
DWIDTH 16 0
BBX 16 16 0 -2
BITMAP
0018
00f0
1f80
1000
1ffe
1010
1010
1010
ffff
0100
0100
2104
2104
2104
3ffc
0000
ENDCHAR
STARTCHAR ch-182
ENCODING 182
SWIDTH 1000 0
DWIDTH 16 0
BBX 16 16 0 -2
BITMAP
2010
2030
2020
a9fe
a902
a902
a902
a902
a9fe
a902
a902
f902
0102
0102
01fe
0000
ENDCHAR
STARTCHAR ch-183
ENCODING 183
SWIDTH 1000 0
DWIDTH 16 0
BBX 16 16 0 -2
BITMAP
2000
21fe
2102
a902
a902
a9fe
a910
a910
a9ff
a910
a910
f918
0108
016d
01c7
0302
ENDCHAR
STARTCHAR ch-184
ENCODING 184
SWIDTH 1000 0
DWIDTH 16 0
BBX 16 16 0 -2
BITMAP
0080
2082
2082
3ffe
0000
3fff
2000
27fc
2040
2040
3fff
2040
6040
4040
c040
0040
ENDCHAR
STARTCHAR ch-187
ENCODING 187
SWIDTH 1000 0
DWIDTH 16 0
BBX 16 16 0 -2
BITMAP
0006
201c
21f0
2110
a910
a910
a9ff
a910
a910
a918
a908
f908
01ec
0705
0007
07f2
ENDCHAR
STARTCHAR ch-188
ENCODING 188
SWIDTH 1000 0
DWIDTH 16 0
BBX 16 16 0 -2
BITMAP
2000
23fe
2020
aa22
ab26
a924
a924
a820
afff
a820
a820
f820
0020
0020
0020
0020
ENDCHAR
STARTCHAR ch-190
ENCODING 190
SWIDTH 1000 0
DWIDTH 16 0
BBX 16 16 0 -2
BITMAP
2020
2020
2020
a420
a43f
a420
a420
a420
a420
a5fe
a502
fd02
0102
0102
0102
01fe
ENDCHAR
STARTCHAR ch-197
ENCODING 197
SWIDTH 1000 0
DWIDTH 16 0
BBX 16 16 0 -2
BITMAP
2080
2084
2184
a93e
abeb
a888
a888
a888
afff
a888
a888
f888
0188
0108
0308
0608
ENDCHAR
STARTCHAR ch-199
ENCODING 199
SWIDTH 1000 0
DWIDTH 16 0
BBX 16 16 0 -2
BITMAP
0100
4102
4102
7ffe
0100
0380
06c0
0c70
381c
e7e7
0000
1ff8
1008
1008
1008
1ff8
ENDCHAR
STARTCHAR ch-217
ENCODING 217
SWIDTH 1000 0
DWIDTH 16 0
BBX 16 16 0 -2
BITMAP
2020
2020
21fe
a820
a820
a820
abff
a804
a804
abff
a804
f984
00c4
0044
0004
001c
ENDCHAR
STARTCHAR ch-224
ENCODING 224
SWIDTH 1000 0
DWIDTH 16 0
BBX 16 16 0 -2
BITMAP
2020
2020
203e
a820
a820
abff
a800
a800
abff
a820
a820
f83c
0026
0020
0020
0020
ENDCHAR
STARTCHAR ch-225
ENCODING 225
SWIDTH 1000 0
DWIDTH 16 0
BBX 16 16 0 -2
BITMAP
0020
2020
23fe
a820
aa22
ab26
a924
a924
a820
afff
a850
f8d8
0088
018c
0306
0603
ENDCHAR
STARTCHAR ch-232
ENCODING 232
SWIDTH 1000 0
DWIDTH 16 0
BBX 16 16 0 -2
BITMAP
20d4
2196
2712
2110
a910
afff
a910
a912
a912
a9d6
af14
a91c
f909
011d
0137
0762
ENDCHAR
STARTCHAR ch-233
ENCODING 233
SWIDTH 1000 0
DWIDTH 16 0
BBX 16 16 0 -2
BITMAP
0100
4102
4102
7ffe
0000
0e44
7846
1042
ffff
1024
102c
1e38
f010
1039
10ed
7387
ENDCHAR
STARTCHAR ch-234
ENCODING 234
SWIDTH 1000 0
DWIDTH 16 0
BBX 16 16 0 -2
BITMAP
2088
2088
218c
ab06
a820
a870
a8d8
a98c
af07
a800
a9fc
f904
0104
0104
0104
01fc
ENDCHAR
STARTCHAR ch-237
ENCODING 237
SWIDTH 1000 0
DWIDTH 16 0
BBX 16 16 0 -2
BITMAP
0020
2122
21a6
20a4
a820
a9fe
a902
a902
a9fe
a902
a902
f9fe
0102
0102
0102
010e
ENDCHAR
STARTCHAR ch-239
ENCODING 239
SWIDTH 1000 0
DWIDTH 16 0
BBX 16 16 0 -2
BITMAP
4102
4102
7ffe
0200
07f0
1c10
7220
01c0
1e78
f10f
1ff8
0100
1ff8
0100
ffff
0100
ENDCHAR
STARTCHAR ch-240
ENCODING 240
SWIDTH 1000 0
DWIDTH 16 0
BBX 16 16 0 -2
BITMAP
0040
207c
20c4
a98c
ab58
a870
a8dc
ab87
a820
a9fe
a820
f9fe
0020
03ff
0020
0020
ENDCHAR
STARTCHAR ch-246
ENCODING 246
SWIDTH 1000 0
DWIDTH 16 0
BBX 16 16 0 -2
BITMAP
0080
0100
1ff8
1008
1ff8
1008
1ff8
1000
1fff
1000
1ffe
0402
8422
8422
ffe6
001c
ENDCHAR
STARTCHAR ch-250
ENCODING 250
SWIDTH 1000 0
DWIDTH 16 0
BBX 16 16 0 -2
BITMAP
2000
27ff
2020
abfe
aa22
aa22
abfe
aa22
aa22
abfe
a820
f8a0
0060
00f0
019c
0707
ENDCHAR
STARTCHAR ch-251
ENCODING 251
SWIDTH 1000 0
DWIDTH 16 0
BBX 16 16 0 -2
BITMAP
0080
2184
2104
23fe
a892
a890
a99f
ab40
a87c
a8c4
a98c
ab58
f830
0078
00cc
0387
ENDCHAR
STARTCHAR ch-253
ENCODING 253
SWIDTH 1000 0
DWIDTH 16 0
BBX 16 16 0 -2
BITMAP
0020
2020
27ff
a820
a924
a924
a924
aaaa
aaaa
ac71
a850
f8d8
0088
018c
0306
0603
ENDCHAR
STARTCHAR ch-263
ENCODING 263
SWIDTH 1000 0
DWIDTH 16 0
BBX 16 16 0 -2
BITMAP
0100
2104
2104
3ffc
0000
0100
7ffe
4002
4ff2
0000
ffff
0100
1108
310c
e107
0700
ENDCHAR
STARTCHAR ch-267
ENCODING 267
SWIDTH 1000 0
DWIDTH 16 0
BBX 16 16 0 -2
BITMAP
0100
4102
4102
7ffe
0000
7ffe
1108
1108
ffff
1108
1108
7ffe
0100
ffff
0100
0100
ENDCHAR
STARTCHAR ch-270
ENCODING 270
SWIDTH 1000 0
DWIDTH 16 0
BBX 16 16 0 -2
BITMAP
0020
2020
23fe
a850
a8d8
a98c
a800
afff
a804
a9e4
a924
f924
0124
01e4
0004
001c
ENDCHAR
STARTCHAR ch-273
ENCODING 273
SWIDTH 1000 0
DWIDTH 16 0
BBX 16 16 0 -2
BITMAP
0100
4102
4102
7ffe
0000
3ffc
2004
3ffc
2004
3ffc
0000
2046
3e7c
2041
3e63
e03e
ENDCHAR
STARTCHAR ch-276
ENCODING 276
SWIDTH 1000 0
DWIDTH 16 0
BBX 16 16 0 -2
BITMAP
0100
4102
4102
7ffe
0420
0840
1ffe
3080
d080
1ffc
1080
1080
1ffc
1080
1080
1fff
ENDCHAR
STARTCHAR ch-277
ENCODING 277
SWIDTH 1000 0
DWIDTH 16 0
BBX 16 16 0 -2
BITMAP
2000
23ff
2200
aa10
aafe
aa10
aa10
abff
aa00
aa10
fafe
0610
0410
0c10
01ff
0000
ENDCHAR
STARTCHAR ch-278
ENCODING 278
SWIDTH 1000 0
DWIDTH 16 0
BBX 16 16 0 -2
BITMAP
2082
2082
3ffe
0000
7fff
4000
4080
4ffc
4080
5ffe
4000
4080
cffc
8080
bfff
0000
ENDCHAR
STARTCHAR ch-279
ENCODING 279
SWIDTH 1000 0
DWIDTH 16 0
BBX 16 16 0 -2
BITMAP
0100
4102
4102
7ffe
0000
7ffe
4812
4422
5ffa
4102
4912
4912
4912
4ff2
4002
400e
ENDCHAR
STARTCHAR ch-280
ENCODING 280
SWIDTH 1000 0
DWIDTH 16 0
BBX 16 16 0 -2
BITMAP
2020
2070
20d8
a98c
af07
a8f8
a800
a800
abfe
aa92
aa92
fbfe
0292
0292
0292
0296
ENDCHAR
STARTCHAR ch-281
ENCODING 281
SWIDTH 1000 0
DWIDTH 16 0
BBX 16 16 0 -2
BITMAP
0100
4102
4102
7ffe
0100
0380
0ee0
3838
e7cf
0000
3ffc
2444
3ffc
2444
2444
245c
ENDCHAR
STARTCHAR ch-282
ENCODING 282
SWIDTH 1000 0
DWIDTH 16 0
BBX 16 16 0 -2
BITMAP
2020
2020
23fe
a820
afff
a888
a988
ab4f
a840
a8fc
a984
fb0c
00d8
0070
01dc
0707
ENDCHAR
STARTCHAR ch-283
ENCODING 283
SWIDTH 1000 0
DWIDTH 16 0
BBX 16 16 0 -2
BITMAP
2000
23fe
2202
aa02
abfe
aa00
aa10
aa92
aa92
aafe
aa10
fa10
0692
0492
0c92
00fe
ENDCHAR
STARTCHAR ch-287
ENCODING 287
SWIDTH 1000 0
DWIDTH 16 0
BBX 16 16 0 -2
BITMAP
0100
4102
4102
7ffe
0100
0380
06c0
0c70
381c
efe7
0100
3ffc
0910
0520
ffff
0000
ENDCHAR
STARTCHAR ch-290
ENCODING 290
SWIDTH 1000 0
DWIDTH 16 0
BBX 16 16 0 -2
BITMAP
2006
203c
23e2
a926
a894
a9fe
a822
a822
abff
a822
a822
f9fe
0020
0020
0020
00e0
ENDCHAR
STARTCHAR ch-297
ENCODING 297
SWIDTH 1000 0
DWIDTH 16 0
BBX 16 16 0 -2
BITMAP
0100
4102
4102
7ffe
0000
3e3e
2222
2222
3e3e
2222
2222
3e3e
2222
6262
4242
cece
ENDCHAR
STARTCHAR ch-331
ENCODING 331
SWIDTH 1000 0
DWIDTH 16 0
BBX 16 16 0 -2
BITMAP
2000
23fe
2222
aa22
abfe
aa00
aafe
aa82
aa82
aafe
aa82
fa82
06fe
0482
0c82
00fe
ENDCHAR
STARTCHAR ch-332
ENCODING 332
SWIDTH 1000 0
DWIDTH 16 0
BBX 16 16 0 -2
BITMAP
0100
4102
4102
7ffe
0040
4440
447e
fec2
4594
4410
7c10
4438
4428
446c
7cc6
0183
ENDCHAR
STARTCHAR ch-334
ENCODING 334
SWIDTH 1000 0
DWIDTH 16 0
BBX 16 16 0 -2
BITMAP
2000
21fe
2122
a922
a9fe
a922
a922
a9fe
a820
abff
aa21
fa29
023d
02e5
0201
0207
ENDCHAR
STARTCHAR ch-336
ENCODING 336
SWIDTH 1000 0
DWIDTH 16 0
BBX 16 16 0 -2
BITMAP
4102
4102
7ffe
0000
3ffc
2004
2ff4
2104
2ff4
2914
2914
2ff4
2104
6125
41f5
df1b
ENDCHAR
STARTCHAR ch-338
ENCODING 338
SWIDTH 1000 0
DWIDTH 16 0
BBX 16 16 0 -2
BITMAP
0ff0
0810
0810
0ff0
0000
7c3e
4422
4422
7c3e
0000
0100
4102
4102
4102
7ffe
0000
ENDCHAR
STARTCHAR ch-348
ENCODING 348
SWIDTH 1000 0
DWIDTH 16 0
BBX 16 16 0 -2
BITMAP
0100
2104
2104
3ffc
0000
0100
7ffe
0810
0420
ffff
0008
1f88
1088
1088
1f88
0038
ENDCHAR
STARTCHAR ch-361
ENCODING 361
SWIDTH 1000 0
DWIDTH 16 0
BBX 16 16 0 -2
BITMAP
2104
2104
3ffc
0000
0100
ffff
0000
0ff0
0810
0ff0
0000
7ffe
4002
4ff2
4812
4ff6
ENDCHAR
STARTCHAR ch-364
ENCODING 364
SWIDTH 1000 0
DWIDTH 16 0
BBX 16 16 0 -2
BITMAP
0100
4102
4102
7ffe
0200
3ffc
2104
3ffc
2104
3ffc
0448
044a
0c5e
1841
3063
e03e
ENDCHAR
STARTCHAR ch-367
ENCODING 367
SWIDTH 1000 0
DWIDTH 16 0
BBX 16 16 0 -2
BITMAP
0104
2088
23fe
a820
a820
a9fc
a820
a820
abfe
a840
a880
f9fe
0310
0c10
0010
01ff
ENDCHAR
STARTCHAR ch-371
ENCODING 371
SWIDTH 1000 0
DWIDTH 16 0
BBX 16 16 0 -2
BITMAP
0100
4102
4102
7ffe
0810
0420
7ffc
0100
3ff8
0100
ffff
0800
1ffe
2040
c040
1fff
ENDCHAR
STARTCHAR ch-374
ENCODING 374
SWIDTH 1000 0
DWIDTH 16 0
BBX 16 16 0 -2
BITMAP
2000
27df
2041
a841
abcf
aa08
aa08
abcf
a841
ae59
aa49
f9c7
034d
0659
00c3
038e
ENDCHAR
STARTCHAR ch-386
ENCODING 386
SWIDTH 1000 0
DWIDTH 16 0
BBX 16 16 0 -2
BITMAP
0020
2020
23fe
2104
a888
afff
a800
a9fc
a904
a9fc
a904
f9fc
0020
07ff
0020
0020
ENDCHAR
STARTCHAR ch-388
ENCODING 388
SWIDTH 1000 0
DWIDTH 16 0
BBX 16 16 0 -2
BITMAP
0100
4102
4102
7ffe
0800
ff86
083c
7f20
493f
7f24
4924
7f24
0824
ffe4
0844
0804
ENDCHAR
STARTCHAR ch-391
ENCODING 391
SWIDTH 1000 0
DWIDTH 16 0
BBX 16 16 0 -2
BITMAP
2000
23ff
2200
aa7c
aa44
aa44
aa7c
aa00
aaee
aaaa
aaaa
faaa
02ee
0200
03ff
0000
ENDCHAR
STARTCHAR ch-395
ENCODING 395
SWIDTH 1000 0
DWIDTH 16 0
BBX 16 16 0 -2
BITMAP
0020
2040
21fc
a904
a9fc
a904
a9fc
a900
a9ff
a900
a9fe
f802
02aa
06aa
0406
000c
ENDCHAR
STARTCHAR ch-396
ENCODING 396
SWIDTH 1000 0
DWIDTH 16 0
BBX 16 16 0 -2
BITMAP
4102
4102
7ffe
0100
1ff8
1008
1ff8
1008
1ff8
1000
1fff
1000
1fff
4921
c493
8006
ENDCHAR
STARTCHAR ch-400
ENCODING 400
SWIDTH 1000 0
DWIDTH 16 0
BBX 16 16 0 -2
BITMAP
4102
4102
7ffe
0080
7cfc
458c
4b58
5030
50ec
4b87
48a0
49fe
5b20
40fc
4020
43ff
ENDCHAR
STARTCHAR ch-413
ENCODING 413
SWIDTH 1000 0
DWIDTH 16 0
BBX 16 16 0 -2
BITMAP
01e4
2228
2171
20da
a98c
af07
a8f8
a800
a9fc
a904
a904
f9fc
0088
00d8
0050
07ff
ENDCHAR
STARTCHAR ch-418
ENCODING 418
SWIDTH 1000 0
DWIDTH 16 0
BBX 16 16 0 -2
BITMAP
0020
21fc
2020
23fe
a800
a904
abdf
a904
a9c4
ab1f
a800
fbff
0088
0089
0189
0707
ENDCHAR
STARTCHAR ch-428
ENCODING 428
SWIDTH 1000 0
DWIDTH 16 0
BBX 16 16 0 -2
BITMAP
2104
2088
23fe
a820
a9fc
a820
afff
a804
abd2
a910
afff
f912
01d4
0709
0115
0323
ENDCHAR
STARTCHAR ch-430
ENCODING 430
SWIDTH 1000 0
DWIDTH 16 0
BBX 16 16 0 -2
BITMAP
2020
2070
20d8
a98c
af07
a8f8
a800
abde
aa52
aa52
abde
f800
0104
0104
038e
06db
ENDCHAR
STARTCHAR ch-439
ENCODING 439
SWIDTH 1000 0
DWIDTH 16 0
BBX 16 16 0 -2
BITMAP
4102
4102
7ffe
0000
4cfe
7804
4228
7e10
21ff
7e11
4850
ff5e
0850
1c70
36dc
e187
ENDCHAR
STARTCHAR ch-442
ENCODING 442
SWIDTH 1000 0
DWIDTH 16 0
BBX 16 16 0 -2
BITMAP
4102
4102
7ffe
1000
39ff
6c10
c6fe
3882
00fe
fc82
24fe
2482
24fe
2c44
20c6
2183
ENDCHAR
STARTCHAR ch-444
ENCODING 444
SWIDTH 1000 0
DWIDTH 16 0
BBX 16 16 0 -2
BITMAP
2180
234e
2272
aa42
ab46
aa72
aa12
ab56
aa52
aa52
aa52
ffff
0000
0104
0306
0603
ENDCHAR
STARTCHAR ch-445
ENCODING 445
SWIDTH 1000 0
DWIDTH 16 0
BBX 16 16 0 -2
BITMAP
4102
4102
7ffe
0000
978a
5009
2fc8
503f
9788
1008
3788
501c
9794
1496
34b2
e7a3
ENDCHAR
STARTCHAR ch-457
ENCODING 457
SWIDTH 1000 0
DWIDTH 16 0
BBX 16 16 0 -2
BITMAP
21f8
2610
23fe
aa02
abfe
a910
a9de
a911
abcf
a800
abfe
fa22
03fe
0094
0191
070f
ENDCHAR
STARTCHAR ch-460
ENCODING 460
SWIDTH 1000 0
DWIDTH 16 0
BBX 16 16 0 -2
BITMAP
2082
2082
3ffe
1104
7fff
4010
5f10
443f
7fa4
5164
5f14
511c
5f08
d11c
9f36
3163
ENDCHAR
STARTCHAR ch-461
ENCODING 461
SWIDTH 1000 0
DWIDTH 16 0
BBX 16 16 0 -2
BITMAP
4102
4102
7ffe
0010
0c20
78fe
1092
fefe
5492
92fe
2054
ff55
245f
6850
1c51
e68f
ENDCHAR
STARTCHAR ch-466
ENCODING 466
SWIDTH 1000 0
DWIDTH 16 0
BBX 16 16 0 -2
BITMAP
23c4
4008
8ff1
500a
23c4
4809
fbdf
2004
abd5
aa55
23c4
0000
0100
4102
4102
7ffe
ENDCHAR
STARTCHAR ch-467
ENCODING 467
SWIDTH 1000 0
DWIDTH 16 0
BBX 16 16 0 -2
BITMAP
4102
4102
7ffe
1000
feff
1010
7c7e
4442
7c7e
4442
7c7e
4442
fe7e
2824
6c66
c6c3
ENDCHAR
STARTCHAR ch-470
ENCODING 470
SWIDTH 1000 0
DWIDTH 16 0
BBX 16 16 0 -2
BITMAP
2082
3ffe
0000
1e3c
1224
7fff
4010
5f10
443f
7fa4
5174
5f1c
5108
df1c
b136
0163
ENDCHAR
STARTCHAR ch-475
ENCODING 475
SWIDTH 1000 0
DWIDTH 16 0
BBX 16 16 0 -2
BITMAP
0842
0842
18c6
118c
3108
2318
6630
4420
6630
2318
3108
118c
1084
18c6
0842
0842
ENDCHAR
STARTCHAR ch-477
ENCODING 477
SWIDTH 1000 0
DWIDTH 16 0
BBX 16 16 0 -2
BITMAP
0002
2002
2082
2082
2082
2082
2082
2082
2082
2082
2082
2082
6082
4002
c002
0002
ENDCHAR
STARTCHAR ch-478
ENCODING 478
SWIDTH 1000 0
DWIDTH 16 0
BBX 16 16 0 -2
BITMAP
1002
1082
1082
1082
1082
54a2
56b2
529a
d28a
9082
1082
1082
3082
2082
6002
c002
ENDCHAR
STARTCHAR ch-481
ENCODING 481
SWIDTH 1000 0
DWIDTH 16 0
BBX 16 16 0 -2
BITMAP
0000
6092
31b6
1124
036c
0248
0490
f490
1248
136c
1124
11b6
1092
3000
6800
c7ff
ENDCHAR
STARTCHAR ch-483
ENCODING 483
SWIDTH 1000 0
DWIDTH 16 0
BBX 16 16 0 -2
BITMAP
2204
330c
1108
3ffc
2104
3ffc
2104
2104
3ffc
0100
ffff
0520
0d30
391c
e107
0100
ENDCHAR
STARTCHAR ch-485
ENCODING 485
SWIDTH 1000 0
DWIDTH 16 0
BBX 16 16 0 -2
BITMAP
0000
0000
7ffe
0100
0100
0100
0100
0100
0100
0100
0100
0100
0100
ffff
0000
0000
ENDCHAR
STARTCHAR ch-486
ENCODING 486
SWIDTH 1000 0
DWIDTH 16 0
BBX 16 16 0 -2
BITMAP
0200
0200
0200
ffff
0400
0400
0400
0ffe
0840
1840
3040
6040
c040
0040
1fff
0000
ENDCHAR
STARTCHAR ch-487
ENCODING 487
SWIDTH 1000 0
DWIDTH 16 0
BBX 16 16 0 -2
BITMAP
0000
03ff
fc20
1020
1060
1040
10fe
1002
1002
1c02
7002
c006
0004
0004
000c
0078
ENDCHAR
STARTCHAR ch-488
ENCODING 488
SWIDTH 1000 0
DWIDTH 16 0
BBX 16 16 0 -2
BITMAP
0000
3ffe
2000
2000
2000
3ffc
2004
2004
2004
3ffc
2000
2000
2000
2000
3ffe
0000
ENDCHAR
STARTCHAR ch-491
ENCODING 491
SWIDTH 1000 0
DWIDTH 16 0
BBX 16 16 0 -2
BITMAP
0000
7ffe
0100
0100
1108
1108
1108
1108
391c
2914
6d36
4522
0100
0100
ffff
0000
ENDCHAR
STARTCHAR ch-494
ENCODING 494
SWIDTH 1000 0
DWIDTH 16 0
BBX 16 16 0 -2
BITMAP
0810
0420
7ffe
0100
0100
3ffc
0100
0100
ffff
0400
0800
1ffc
3080
c080
0080
3fff
ENDCHAR
STARTCHAR ch-497
ENCODING 497
SWIDTH 1000 0
DWIDTH 16 0
BBX 16 16 0 -2
BITMAP
0000
3ffc
0004
0004
0004
0004
3ffc
2000
2000
2000
2000
2000
2002
3006
1ffc
0000
ENDCHAR
STARTCHAR ch-498
ENCODING 498
SWIDTH 1000 0
DWIDTH 16 0
BBX 16 16 0 -2
BITMAP
0000
7ffc
0004
0004
4004
4004
7ffc
4000
4000
4000
4000
4000
4001
6003
3ffe
0000
ENDCHAR
STARTCHAR ch-499
ENCODING 499
SWIDTH 1000 0
DWIDTH 16 0
BBX 16 16 0 -2
BITMAP
0000
3ffc
2004
2004
2004
2004
3ffc
2000
2000
2000
2000
2000
2001
3003
1ffe
0000
ENDCHAR
STARTCHAR ch-500
ENCODING 500
SWIDTH 1000 0
DWIDTH 16 0
BBX 16 16 0 -2
BITMAP
0000
7ffc
4104
4104
4104
4104
4104
7ffc
4000
4000
4000
4000
4001
6003
3ffe
0000
ENDCHAR
STARTCHAR ch-501
ENCODING 501
SWIDTH 1000 0
DWIDTH 16 0
BBX 16 16 0 -2
BITMAP
0018
00f0
3f80
2000
3fff
2000
2ffc
2884
2884
2884
2ffc
2800
6800
4801
cc03
07fe
ENDCHAR
STARTCHAR ch-503
ENCODING 503
SWIDTH 1000 0
DWIDTH 16 0
BBX 16 16 0 -2
BITMAP
0420
0420
7ffe
0420
0420
ffff
0810
1008
3ffc
e017
0010
1ff0
1000
1004
180c
0ff8
ENDCHAR
STARTCHAR ch-507
ENCODING 507
SWIDTH 1000 0
DWIDTH 16 0
BBX 16 16 0 -2
BITMAP
1108
1918
0910
3ffc
0240
0420
ffff
0810
1ff8
302c
e027
0fe0
0800
0804
0c0c
07f8
ENDCHAR
STARTCHAR ch-509
ENCODING 509
SWIDTH 1000 0
DWIDTH 16 0
BBX 16 16 0 -2
BITMAP
0000
7e7e
0202
7e7e
4040
4242
3e3e
0000
0420
3ffc
0420
0420
ffff
0810
1818
700e
ENDCHAR
STARTCHAR ch-510
ENCODING 510
SWIDTH 1000 0
DWIDTH 16 0
BBX 16 16 0 -2
BITMAP
0100
0100
0100
0100
7ffe
4102
4102
4102
4102
4102
4102
4102
410e
0100
0100
0100
ENDCHAR
ENDFONT
